<svg width="16" height="25" viewBox="0 0 16 25" fill="none" xmlns="http://www.w3.org/2000/svg">
<path fill-rule="evenodd" clip-rule="evenodd" d="M5 5.5H11V5.00468C11 4.71404 11.226 4.5 11.5047 4.5H12.4953C12.786 4.5 13 4.72595 13 5.00468V5.5H14.7568C15.3028 5.5 15.75 5.94725 15.75 6.49896V7.50104C15.75 8.05734 15.3053 8.5 14.7568 8.5H1.24317C0.697169 8.5 0.25 8.05275 0.25 7.50104V6.49896C0.25 5.94266 0.694659 5.5 1.24317 5.5H3V5.00468C3 4.71404 3.22596 4.5 3.50468 4.5H4.49532C4.78596 4.5 5 4.72595 5 5.00468V5.5ZM1.50468 9.5H2.49532C2.78596 9.5 3 9.72596 3 10.0047V10.9953C3 11.286 2.77404 11.5 2.49532 11.5H1.50468C1.21404 11.5 1 11.274 1 10.9953V10.0047C1 9.71404 1.22595 9.5 1.50468 9.5ZM4.50468 9.5H5.49532C5.78596 9.5 6 9.72596 6 10.0047V10.9953C6 11.286 5.77404 11.5 5.49532 11.5H4.50468C4.21404 11.5 4 11.274 4 10.9953V10.0047C4 9.71404 4.22596 9.5 4.50468 9.5ZM7.50468 9.5H8.49532C8.78596 9.5 9 9.72596 9 10.0047V10.9953C9 11.286 8.77404 11.5 8.49532 11.5H7.50468C7.21404 11.5 7 11.274 7 10.9953V10.0047C7 9.71404 7.22596 9.5 7.50468 9.5ZM1.50468 12.5H2.49532C2.78596 12.5 3 12.726 3 13.0047V13.9953C3 14.286 2.77404 14.5 2.49532 14.5H1.50468C1.21404 14.5 1 14.274 1 13.9953V13.0047C1 12.714 1.22595 12.5 1.50468 12.5ZM4.50468 12.5H5.49532C5.78596 12.5 6 12.726 6 13.0047V13.9953C6 14.286 5.77404 14.5 5.49532 14.5H4.50468C4.21404 14.5 4 14.274 4 13.9953V13.0047C4 12.714 4.22596 12.5 4.50468 12.5ZM7.50468 12.5H8.49532C8.78596 12.5 9 12.726 9 13.0047V13.9953C9 14.286 8.77404 14.5 8.49532 14.5H7.50468C7.21404 14.5 7 14.274 7 13.9953V13.0047C7 12.714 7.22596 12.5 7.50468 12.5ZM1.50468 15.5H2.49532C2.78596 15.5 3 15.726 3 16.0047V16.9953C3 17.286 2.77404 17.5 2.49532 17.5H1.50468C1.21404 17.5 1 17.274 1 16.9953V16.0047C1 15.714 1.22595 15.5 1.50468 15.5ZM4.50468 15.5H5.49532C5.78596 15.5 6 15.726 6 16.0047V16.9953C6 17.286 5.77404 17.5 5.49532 17.5H4.50468C4.21404 17.5 4 17.274 4 16.9953V16.0047C4 15.714 4.22596 15.5 4.50468 15.5ZM7.50468 15.5H8.49532C8.78596 15.5 9 15.726 9 16.0047V16.9953C9 17.286 8.77404 17.5 8.49532 17.5H7.50468C7.21404 17.5 7 17.274 7 16.9953V16.0047C7 15.714 7.22596 15.5 7.50468 15.5ZM10.5047 9.5H11.4953C11.786 9.5 12 9.72596 12 10.0047V10.9953C12 11.286 11.774 11.5 11.4953 11.5H10.5047C10.214 11.5 10 11.274 10 10.9953V10.0047C10 9.71404 10.226 9.5 10.5047 9.5ZM10.5047 12.5H11.4953C11.786 12.5 12 12.726 12 13.0047V13.9953C12 14.286 11.774 14.5 11.4953 14.5H10.5047C10.214 14.5 10 14.274 10 13.9953V13.0047C10 12.714 10.226 12.5 10.5047 12.5ZM10.5047 15.5H11.4953C11.786 15.5 12 15.726 12 16.0047V16.9953C12 17.286 11.774 17.5 11.4953 17.5H10.5047C10.214 17.5 10 17.274 10 16.9953V16.0047C10 15.714 10.226 15.5 10.5047 15.5ZM13.5047 15.5H14.4953C14.786 15.5 15 15.726 15 16.0047V16.9953C15 17.286 14.774 17.5 14.4953 17.5H13.5047C13.214 17.5 13 17.274 13 16.9953V16.0047C13 15.714 13.226 15.5 13.5047 15.5ZM1.50468 18.5H2.49532C2.78596 18.5 3 18.726 3 19.0047V19.9953C3 20.286 2.77404 20.5 2.49532 20.5H1.50468C1.21404 20.5 1 20.274 1 19.9953V19.0047C1 18.714 1.22595 18.5 1.50468 18.5ZM4.50468 18.5H5.49532C5.78596 18.5 6 18.726 6 19.0047V19.9953C6 20.286 5.77404 20.5 5.49532 20.5H4.50468C4.21404 20.5 4 20.274 4 19.9953V19.0047C4 18.714 4.22596 18.5 4.50468 18.5ZM7.50468 18.5H8.49532C8.78596 18.5 9 18.726 9 19.0047V19.9953C9 20.286 8.77404 20.5 8.49532 20.5H7.50468C7.21404 20.5 7 20.274 7 19.9953V19.0047C7 18.714 7.22596 18.5 7.50468 18.5ZM10.5047 18.5H11.4953C11.786 18.5 12 18.726 12 19.0047V19.9953C12 20.286 11.774 20.5 11.4953 20.5H10.5047C10.214 20.5 10 20.274 10 19.9953V19.0047C10 18.714 10.226 18.5 10.5047 18.5ZM13.5047 18.5H14.4953C14.786 18.5 15 18.726 15 19.0047V19.9953C15 20.286 14.774 20.5 14.4953 20.5H13.5047C13.214 20.5 13 20.274 13 19.9953V19.0047C13 18.714 13.226 18.5 13.5047 18.5ZM13.5047 12.5H14.4953C14.786 12.5 15 12.726 15 13.0047V13.9953C15 14.286 14.774 14.5 14.4953 14.5H13.5047C13.214 14.5 13 14.274 13 13.9953V13.0047C13 12.714 13.226 12.5 13.5047 12.5ZM13.5047 9.5H14.4953C14.786 9.5 15 9.72596 15 10.0047V10.9953C15 11.286 14.774 11.5 14.4953 11.5H13.5047C13.214 11.5 13 11.274 13 10.9953V10.0047C13 9.71404 13.226 9.5 13.5047 9.5Z" fill="#90A3BF"/>
</svg>
