<svg width="73" height="34" viewBox="0 0 73 34" fill="none" xmlns="http://www.w3.org/2000/svg">
<path fill-rule="evenodd" clip-rule="evenodd" d="M59.2163 24.5786V20.3137L56.8388 17.985L59.2303 19.3378V12.2281L50.3323 22.2163L47.6113 25.4222L51.3615 23.0116L46.9352 27.6512L46.2931 30H44.3848H40.4802H33.5049L40.4802 28.5327V25.9956V19.5777V3.49431L33.7795 13.7348H36.0542L32.6121 21.8674L29.3541 23.4939L32.1196 24.8199L31.2612 26.3138L28.935 30H25.2665H24.4466H14.3859L24.4466 29.253V25.2797L24.5119 18.2531L21.4236 18.705L24.5886 16.9879L24.6814 12.2594L17.9196 19.2773L18.288 20.9643L14.1075 24.278L16.0133 23.735L9.76091 30H6.27066H5.51648H7.88231e-07L6.36248 28.1088L9.55836 20.9632L13.1242 21.6868L25.2962 8.07215L30.4598 17.7102L32.3042 9.51804L39.5581 0H42.3856L45.4529 8.25277L49.3375 10.7306L50.8526 17.9356L59.2303 9.39784L62.1637 12.1666L68.4511 25.5421L73 30H61.1676H59.7997H59.2303H50.287L59.2303 29.0353V28.0559L56.1492 26.3138L59.2163 24.5786Z" fill="#202020"/>
</svg>
