<svg width="73" height="31" viewBox="0 0 73 31" fill="none" xmlns="http://www.w3.org/2000/svg">
<path fill-rule="evenodd" clip-rule="evenodd" d="M59.2163 25.0786V20.8137L56.8388 18.485L59.2303 19.8378V12.7281L50.3323 22.7163L47.6113 25.9222L51.3615 23.5116L46.9352 28.1512L46.2931 30.5H44.3848H40.4802H33.5049L40.4802 29.0327V26.4956V20.0777V3.99431L33.7795 14.2348H36.0542L32.6121 22.3674L29.3541 23.9939L32.1196 25.3199L31.2612 26.8138L28.935 30.5H25.2665H24.4466H14.3859L24.4466 29.753V25.7797L24.5119 18.7531L21.4236 19.205L24.5886 17.4879L24.6814 12.7594L17.9196 19.7773L18.288 21.4643L14.1075 24.778L16.0133 24.235L9.76091 30.5H6.27066H5.51648H0L6.36248 28.6088L9.55835 21.4632L13.1242 22.1868L25.2962 8.57215L30.4598 18.2102L32.3042 10.018L39.5581 0.5H42.3856L45.4529 8.75277L49.3375 11.2306L50.8526 18.4356L59.2303 9.89784L62.1637 12.6666L68.4511 26.0421L73 30.5H61.1676H59.7997H59.2303H50.287L59.2303 29.5353V28.5559L56.1492 26.8138L59.2163 25.0786Z" fill="white"/>
</svg>
